<?xml version="1.0" encoding="utf-8"?>
<svg width="874.76654" height="873.03131" id="svg2" version="1.1" xmlns="http://www.w3.org/2000/svg">
  <path style="fill:none;stroke:none;stroke-opacity:1" d="M 275.478 506.433 C 272.365 417.294 342.103 342.509 431.242 339.396 C 520.381 336.283 595.166 406.021 598.279 495.16 C 601.392 584.3 531.654 659.085 442.515 662.197 C 353.376 665.31 278.591 595.572 275.478 506.433 L 275.478 506.433 Z" id="path3041"/>
  <path style="fill:none;stroke:none;stroke-opacity:1" d="M 499.981 352.136 C 582.084 386.987 620.39 481.796 585.539 563.899 C 550.689 646.003 455.879 684.308 373.776 649.457 C 291.673 614.607 253.367 519.797 288.218 437.694 C 323.068 355.591 417.878 317.285 499.981 352.136 Z" id="path3041-6-9"/>
  <path style="fill:none;stroke:none" d="M 856.743 427.112 L 438.883 500.792" id="path5309-1-25"/>
  <path style="fill:none;stroke:none" d="M 806.343 288.639 L 438.883 500.792" id="path5309-9"/>
  <path style="fill:#646464;fill-opacity:1;stroke:none" d="M 436.906 209.406 C 365.585 209.406 300.242 235.018 249.594 277.563 C 223.64 299.364 201.537 325.608 184.469 355.125 C 167.657 384.198 155.717 416.448 149.781 450.75 C 146.968 467.005 145.5 483.722 145.5 500.781 C 145.5 626.587 225.252 733.77 336.938 774.563 C 368.117 785.951 401.785 792.188 436.906 792.188 C 472.294 792.188 506.185 785.866 537.563 774.313 C 648.877 733.326 728.281 626.321 728.281 500.781 C 728.281 483.588 726.794 466.751 723.938 450.375 C 717.979 416.216 706.061 384.089 689.313 355.125 C 672.512 326.071 650.834 300.19 625.406 278.594 C 574.59 235.433 508.801 209.406 436.906 209.406 L 436.906 209.406 Z M 436.906 252.813 C 490.165 252.813 539.495 269.611 579.906 298.188 C 609.09 318.824 590.043 370.611 608.031 401.656 C 625.469 431.751 680.321 440.863 683.75 477.25 C 684.481 485.004 684.875 492.836 684.875 500.781 C 684.875 599.453 627.22 684.669 543.781 724.594 C 502.459 744.366 475.184 698.75 436.906 698.75 C 399.847 698.75 371.043 743.578 333.094 726.063 C 247.984 686.781 188.938 600.672 188.938 500.781 C 188.938 493.31 189.259 485.928 189.906 478.625 C 193.152 441.986 247.811 432.877 265.25 402.563 C 283.247 371.279 264.413 319.054 293.75 298.281 C 334.185 269.651 383.592 252.813 436.906 252.813 Z M 638.063 324.281 C 646.389 324.199 657.39 330.784 675.25 361.719 C 698.111 401.315 692.004 411.218 684.75 417.594 C 677.496 423.969 640.959 423.795 622.656 392.094 C 604.353 360.392 622.445 328.626 631.594 325.531 C 633.595 324.854 635.731 324.304 638.063 324.281 Z M 234.813 325.781 C 237.144 325.804 239.249 326.354 241.25 327.031 C 250.398 330.126 268.522 361.892 250.219 393.594 C 231.916 425.295 195.348 425.469 188.094 419.094 C 180.839 412.718 174.733 402.815 197.594 363.219 C 215.454 332.284 226.486 325.699 234.813 325.781 Z M 436.875 714.938 C 473.481 714.938 491.925 746.499 490.031 755.969 C 488.137 765.439 482.597 775.688 436.875 775.688 C 391.153 775.688 385.613 765.439 383.719 755.969 C 381.825 746.499 400.269 714.938 436.875 714.938 Z" id="path5237"/>
  <path id="path5355-9" d="M 114.255 314.809 C 117.183 309.736 138.993 314.008 157.371 316.067 C 179.579 318.555 199.595 320.164 211.676 328.945 C 233.754 344.99 238.219 365.784 229.301 381.231 C 220.382 396.678 200.158 403.18 175.223 392.083 C 161.579 386.011 150.177 369.481 136.918 351.492 C 125.946 336.606 111.326 319.882 114.255 314.809 L 114.255 314.809 Z" style="fill:#c8c8c8;fill-opacity:1;stroke:none"/>
  <path id="path5355-9-4" d="M 436.894 873.031 C 431.037 873.031 423.831 852.007 416.425 835.062 C 407.476 814.586 398.862 796.446 400.425 781.594 C 403.283 754.451 419.057 740.188 436.894 740.188 C 454.731 740.188 470.475 754.451 473.332 781.594 C 474.895 796.446 466.281 814.586 457.332 835.063 C 449.926 852.007 442.752 873.031 436.894 873.031 L 436.894 873.031 Z" style="fill:#c8c8c8;fill-opacity:1;stroke:none"/>
  <path id="path5355-9-4-3" d="M 760.167 314.693 C 763.096 319.766 748.491 336.518 737.519 351.404 C 724.26 369.392 712.858 385.922 699.214 391.994 C 674.279 403.091 654.039 396.562 645.121 381.115 C 636.202 365.668 640.683 344.901 662.761 328.856 C 674.842 320.076 694.858 318.466 717.066 315.978 C 735.444 313.919 757.238 309.62 760.167 314.693 L 760.167 314.693 Z" style="fill:#c8c8c8;fill-opacity:1;stroke:none"/>
  <g>
    <path style="fill:#646464;stroke:none;stroke-width:1;stroke-linecap:butt;stroke-linejoin:miter;stroke-miterlimit:4;stroke-opacity:1;stroke-dasharray:none;stroke-dashoffset:0;fill-opacity:1" d="M 435.594 327.969 C 341.064 327.969 264.438 404.626 264.438 499.156 C 264.438 593.686 341.064 670.313 435.594 670.313 C 530.124 670.313 606.781 593.686 606.781 499.156 C 606.781 404.626 530.124 327.969 435.594 327.969 Z M 436.906 363.844 L 436.938 378.75 L 436.969 363.844 C 516.975 363.872 545.877 417.628 522.969 435.625 C 503.922 450.588 491.579 423.438 437.031 423.438 L 436.938 378.75 L 436.844 423.438 C 382.296 423.438 369.953 450.588 350.906 435.625 C 327.998 417.628 356.9 363.872 436.906 363.844 Z M 328.406 461.25 C 330.967 461.201 333.558 461.671 336.094 462.688 C 358.576 471.701 341.243 495.963 368.563 543.281 C 395.882 590.6 425.56 587.711 422.125 611.688 C 417.994 640.525 356.997 642.361 316.969 573.094 C 280.694 510.264 303.652 461.728 328.406 461.25 Z M 546.094 461.25 C 570.848 461.728 593.806 510.264 557.531 573.094 C 517.503 642.361 456.506 640.525 452.375 611.688 C 448.94 587.711 478.587 590.6 505.906 543.281 C 533.226 495.963 515.924 471.701 538.406 462.688 C 540.942 461.671 543.533 461.201 546.094 461.25 Z" id="path3031"/>
    <path style="fill:#c8c8c8;fill-opacity:1;fill-rule:nonzero;stroke:none" id="path3781" d="M 483.851 500.797 C 483.851 536.956 444.707 559.555 413.392 541.476 C 398.859 533.085 389.906 517.578 389.906 500.797 C 389.906 464.638 429.05 442.038 460.365 460.118 C 474.898 468.509 483.851 484.015 483.851 500.797 Z"/>
  </g>
  <text style="font: 32px / 125% &quot;Lucida Calligraphy&quot;; letter-spacing: 0px; word-spacing: 0px; fill: rgb(0, 0, 0); fill-opacity: 1; stroke: none; white-space: pre;" x="-430.325" y="218.452" id="text3007"><tspan id="tspan3009" x="-430.325" y="218.452" style="font-size: 32px; word-spacing: 0px;"/></text>
  <text style="font: 36px / 125% &quot;Lucida Calligraphy&quot;; letter-spacing: 0px; word-spacing: 0px; fill: rgb(0, 0, 0); fill-opacity: 1; stroke: none; white-space: pre;" x="-476.792" y="685.143" id="text3017"><tspan id="tspan3019" x="-476.792" y="685.143" style="font-size: 36px; word-spacing: 0px;"/></text>
  <path style="fill:none;stroke:none;stroke-opacity:1" id="path3021" d="M 623.408 500.796 C 623.374 397.745 539.84 314.205 436.829 314.205 C 333.818 314.205 250.339 397.745 250.373 500.796 C 250.407 603.848 333.942 687.388 436.952 687.388 C 539.963 687.388 623.442 603.848 623.408 500.796 Z" transform="matrix(-0.390884, 0.92044, -0.92044, -0.390884, 1068.61701, 294.418134)"/>
  <path style="fill:none;stroke:none;stroke-opacity:1" d="M 530.532 368.486 C 602.691 420.912 618.688 521.909 566.261 594.068 C 513.834 666.227 412.838 682.223 340.679 629.797 C 268.519 577.37 252.523 476.373 304.95 404.214 C 357.376 332.055 458.373 316.059 530.532 368.486 L 530.532 368.486 Z" id="path3041-6-9-1"/>
  <g>
    <path id="path5353" d="M 874.008 753.05 C 863.951 770.47 773.208 715.633 736.546 706.704 C 694.389 696.436 643.301 704.128 617.839 685.186 C 593.01 666.715 607.193 664.414 593.782 632.542 C 580.179 600.214 558.531 596.454 568.356 576.581 C 580.654 558.137 594.718 575.032 629.516 570.648 C 663.824 566.326 658.725 552.893 687.136 565.16 C 716.271 577.74 735.169 625.802 765.14 657.178 C 791.204 684.463 884.066 735.63 874.008 753.05 Z" style="fill:#c8c8c8;fill-opacity:1;stroke:none"/>
    <path id="path5355" d="M 738.475 674.8 C 735.547 679.873 713.737 675.601 695.359 673.542 C 673.151 671.054 653.135 669.444 641.054 660.664 C 618.976 644.618 614.511 623.825 623.429 608.378 C 632.348 592.931 652.572 586.428 677.507 597.525 C 691.151 603.598 702.553 620.127 715.812 638.116 C 726.784 653.002 741.404 669.727 738.475 674.8 Z" style="fill:#ffffff;fill-opacity:1;stroke:none"/>
  </g>
  <g>
    <path style="fill:#c8c8c8;fill-opacity:1;stroke:none" d="M 0.758 753.05 C 10.815 770.47 101.559 715.633 138.22 706.704 C 180.377 696.436 231.465 704.128 256.928 685.186 C 281.757 666.715 267.574 664.414 280.985 632.542 C 294.588 600.214 316.235 596.454 306.411 576.581 C 294.113 558.137 280.049 575.032 245.25 570.648 C 210.943 566.326 216.041 552.893 187.631 565.16 C 158.495 577.74 139.597 625.802 109.626 657.178 C 83.563 684.463 -9.299 735.63 0.758 753.05 Z" id="path2989-2"/>
    <path style="fill:#ffffff;fill-opacity:1;stroke:none" d="M 136.291 674.8 C 139.22 679.873 161.03 675.601 179.407 673.542 C 201.616 671.054 221.632 669.444 233.713 660.664 C 255.791 644.618 260.256 623.825 251.337 608.378 C 242.419 592.931 222.195 586.428 197.26 597.525 C 183.615 603.598 172.213 620.127 158.954 638.116 C 147.982 653.002 133.362 669.727 136.291 674.8 Z" id="path5232-3"/>
  </g>
  <g>
    <path style="fill:#c8c8c8;fill-opacity:1;stroke:none" d="M 436.894 0 C 416.78 0 418.898 106.004 408.3 142.219 C 396.114 183.862 363.909 224.259 367.582 255.781 C 371.163 286.519 380.248 275.387 401.144 302.938 C 422.34 330.882 414.772 351.509 436.894 352.938 C 459.017 351.509 451.417 330.882 472.613 302.938 C 493.509 275.387 502.594 286.519 506.175 255.781 C 509.848 224.259 477.674 183.862 465.488 142.219 C 454.89 106.004 457.009 0 436.894 0 Z" id="path2989"/>
    <path style="fill:#ffffff;fill-opacity:1;stroke:none" d="M 436.894 156.5 C 431.036 156.5 423.831 177.524 416.425 194.469 C 407.476 214.946 398.862 233.085 400.425 247.938 C 403.283 275.08 419.057 289.344 436.894 289.344 C 454.731 289.344 470.474 275.08 473.332 247.938 C 474.895 233.085 466.281 214.946 457.332 194.469 C 449.926 177.524 442.752 156.5 436.894 156.5 Z" id="path5232"/>
  </g>
</svg>