<?xml version="1.0" encoding="utf-8"?>
<svg viewBox="0 0 497.3882 497.3222" xmlns="http://www.w3.org/2000/svg">
  <defs/>
  <path style="fill: rgb(255, 255, 255);" d="M 149.337 37.893 C 156.563 37.305 163.298 38.631 169.006 42.727 C 175.77 47.581 179.73 54.463 180.76 63.622 C 181.731 72.263 178.973 79.81 173.698 85.757 C 170.005 89.921 163.478 93.414 157.913 93.508 C 154.197 93.571 149.048 91.045 147.79 87.099 C 146.939 84.429 147.978 81.373 150.653 79.053 C 153.737 76.378 156.764 76.382 159.678 76.336 C 163.073 76.282 167.967 78.867 167.967 78.867 C 167.972 78.945 171.289 76.281 171.283 71.513 C 171.273 63.88 169.149 54.233 162.747 50.077 C 156.443 45.985 147.38 46.544 141.166 50.169 C 135.936 53.22 132.671 58.423 132.034 66.039 C 131.373 73.945 134.476 85.637 138.176 94.648 C 140.001 99.092 142.609 103.112 145.638 106.759 C 142.951 106.378 139.992 105.917 136.963 105.419 C 135.103 102.124 133.446 98.592 131.999 94.739 C 128.359 85.043 123.919 71.547 125.827 61.176 C 127.089 54.319 130.283 47.835 135.748 43.366 C 139.127 40.603 144.986 38.247 149.337 37.893 Z M 145.638 106.759 C 147.19 106.979 148.651 107.172 149.984 107.33 C 168.531 109.528 188.618 110.743 206.839 110.841 C 210.743 110.862 214.455 110.878 218.018 110.875 C 217.522 115.223 216.877 118.58 215.96 122.309 C 212.884 122.335 209.82 122.347 206.773 122.356 C 190.45 122.402 174.374 121.286 158.319 119.627 C 153.782 115.814 149.627 111.513 145.837 106.997 C 145.771 106.918 145.704 106.838 145.638 106.759 Z M 167.162 126.064 C 176.321 131.734 186.819 135.09 197.184 138.023 C 201.415 139.22 205.758 140.343 210.157 141.312 C 211.906 136.582 213.412 131.836 214.539 127.717 C 215.076 125.754 215.546 123.994 215.96 122.309 C 218.044 122.292 220.134 122.268 222.227 122.234 C 221.203 129.175 219.633 136.03 217.546 142.77 C 224.101 143.905 230.711 144.602 237.194 144.598 C 257.853 144.585 278.85 142.266 297.62 134.176 C 311.28 128.288 320.293 121.391 330.564 110.632 C 338.992 101.803 347.888 89.144 355.421 77.609 C 361.235 68.706 367.228 57.513 372.682 48.554 C 380.088 36.39 390.457 27.734 402.297 22.717 C 417.787 16.154 433.98 17.711 449.849 17.623 C 463.851 17.545 481.6 17.707 492.852 18.157 C 495.291 18.255 497.213 21.279 497.375 24.002 C 497.654 28.685 493.458 30.579 491.234 30.528 C 475.777 30.177 459.213 30.498 445.755 30.342 C 431.919 30.181 417.797 29.288 404.822 33.839 C 397.096 36.549 389.266 41.958 384.007 47.12 C 377.582 53.427 373.209 61.539 368.172 69.001 C 361.294 79.189 355.879 90.37 348.549 100.224 C 343.009 107.671 337.232 115.078 330.319 121.271 C 320.811 129.789 310.301 137.483 298.801 143.026 C 289.469 147.524 279.346 150.382 269.057 152.035 C 252.959 154.622 235.654 155.201 219.352 152.817 C 217.681 152.573 216.007 152.305 214.333 152.014 C 211.853 158.365 207.701 166.473 203.324 173.014 C 199.306 179.018 189.932 190.036 189.932 190.036 L 189.888 189.991 C 188.562 191.115 178.61 199.513 173.014 203.258 C 166.473 207.635 158.365 211.787 152.014 214.267 C 152.305 215.941 152.573 217.615 152.817 219.286 C 155.201 235.588 154.622 252.893 152.035 268.991 C 150.382 279.28 147.524 289.403 143.026 298.735 C 137.483 310.235 129.789 320.745 121.271 330.253 C 115.078 337.166 107.671 342.943 100.224 348.483 C 90.37 355.813 79.189 361.228 69.001 368.106 C 61.539 373.143 53.427 377.516 47.12 383.941 C 41.958 389.2 36.549 397.03 33.839 404.756 C 29.288 417.731 30.181 431.853 30.342 445.689 C 30.498 459.147 30.177 475.711 30.528 491.168 C 30.579 493.392 28.685 497.588 24.002 497.309 C 21.279 497.147 18.255 495.225 18.157 492.786 C 17.707 481.534 17.545 463.785 17.623 449.783 C 17.711 433.914 16.154 417.721 22.717 402.231 C 27.734 390.391 36.39 380.022 48.554 372.616 C 57.513 367.162 68.706 361.169 77.609 355.355 C 89.144 347.822 101.803 338.926 110.632 330.498 C 121.391 320.227 128.288 311.214 134.176 297.554 C 142.266 278.784 144.585 257.787 144.598 237.128 C 144.602 230.645 143.905 224.035 142.77 217.48 C 136.03 219.567 129.175 221.137 122.234 222.161 C 122.268 220.068 122.292 217.978 122.309 215.894 C 123.994 215.48 125.755 215.01 127.717 214.473 C 131.836 213.346 136.582 211.84 141.312 210.091 C 140.343 205.692 139.22 201.348 138.023 197.118 C 135.09 186.753 131.734 176.255 126.064 167.096 C 124.148 164.001 121.981 161.054 119.627 158.253 C 119.218 154.302 118.777 150.351 118.312 146.399 C 118.298 146.278 118.283 146.155 118.268 146.031 C 119.656 147.235 121.016 148.487 122.357 149.785 C 129.645 156.84 135.237 165.68 139.696 174.79 C 144.54 184.689 148.041 195.454 150.454 206.36 C 150.528 206.326 150.601 206.293 150.675 206.259 C 157.093 203.332 164.125 199.445 170.325 195.195 C 175.187 191.863 183.975 183.955 183.975 183.955 L 184.517 184.484 L 184.021 183.975 C 184.021 183.975 191.929 175.187 195.261 170.325 C 199.511 164.125 203.398 157.093 206.325 150.675 C 206.359 150.601 206.392 150.528 206.426 150.454 C 195.52 148.041 184.755 144.54 174.856 139.696 C 165.746 135.237 156.906 129.645 149.851 122.357 C 148.553 121.016 147.301 119.656 146.097 118.268 C 146.221 118.283 146.344 118.298 146.465 118.312 C 150.417 118.777 154.368 119.218 158.319 119.627 C 161.12 121.981 164.067 124.148 167.162 126.064 Z M 150.689 9.806 C 148.112 9.069 144.566 9.351 143.026 7.756 C 140.272 4.905 141.39 0 141.39 0 C 141.39 0 149.573 0.326 153.916 1.466 C 161.408 3.432 169.511 6.344 176.492 10.141 C 184.046 14.249 191.325 19.724 197.389 25.649 C 203.424 31.546 209.579 41.225 213.352 48.483 C 218.181 57.773 220.241 64.718 221.943 75.02 C 223.892 86.812 224.338 98.718 223.453 110.853 C 221.678 110.867 219.868 110.874 218.018 110.875 C 218.431 107.262 218.741 102.964 219.02 97.198 C 219.66 83.977 219.295 78 217.15 68.742 C 215.353 60.985 212.316 53.438 208.102 46.682 C 203.917 39.972 198.49 33.949 192.427 28.872 C 186.304 23.745 179.229 19.713 171.94 16.448 C 162.741 12.327 157.779 11.834 150.689 9.806 Z M 223.453 110.853 C 240.178 110.722 253.857 109.953 269.426 106.867 C 286.507 103.482 303.543 99.035 318.508 90.131 C 327.356 84.866 340.204 75.32 347.455 64.725 C 353.873 55.348 360.169 40.311 350.241 28.853 C 341.024 18.216 328.793 17.269 319.221 19.34 C 307.271 21.926 296.504 31.3 296.38 43.417 C 296.305 50.766 299.599 58.181 311.509 59.422 C 327.728 61.112 330.058 51.21 330.058 51.21 C 330.058 51.21 323.126 51.576 319.146 47.921 C 315.772 44.825 313.83 39.878 314.809 35.928 C 315.756 32.107 319.781 27.996 324.809 28.207 C 332.443 28.527 336.773 34.908 338.37 43.828 C 339.904 52.393 332.82 65.296 325.471 68.945 C 313.222 75.026 296.186 69.693 290.187 54.434 C 281.118 31.367 303.085 5.817 326.889 6.579 C 337.357 6.914 347.485 11.303 354.647 18.6 C 359.685 23.732 363.001 33.531 363.463 39.322 C 364.247 49.152 361.556 57.288 357.565 64.945 C 350.425 78.643 334.646 94.567 322.763 100.77 C 303.903 110.616 292.247 113.865 274.888 117.468 C 257.888 120.997 239.938 121.953 222.227 122.234 C 222.451 120.722 222.648 119.205 222.819 117.684 C 223.076 115.398 223.288 113.122 223.453 110.853 Z M 136.963 105.419 C 139.605 110.098 142.656 114.3 146.097 118.268 C 135.049 116.934 114.264 112.919 112.609 112.598 C 112.999 114.612 116.947 135.093 118.268 146.031 C 114.3 142.59 110.098 139.539 105.419 136.897 C 103.3 123.985 100.526 109.783 100.526 109.783 C 100.526 109.783 79.972 105.126 70.258 101.167 C 58.407 96.337 45.703 90.16 36.504 82.871 C 29.732 77.506 23.94 70.673 18.874 64.001 C 13.524 56.953 9.605 50.045 7.65 43.027 C 4.719 32.504 4.219 19.644 12.005 11.858 L 12.038 11.891 C 19.836 4.224 32.621 4.733 43.093 7.65 C 50.111 9.605 57.019 13.524 64.067 18.874 C 70.739 23.94 77.572 29.732 82.937 36.504 C 90.226 45.703 96.403 58.407 101.233 70.258 C 105.192 79.972 109.849 100.526 109.849 100.526 C 109.849 100.526 124.051 103.3 136.963 105.419 Z M 96.989 96.705 C 96.989 96.705 90.686 67.286 81.197 51.667 C 76.887 44.572 68.412 34.513 61.674 28.624 C 53.105 21.134 47.231 15.343 31.202 12.939 C 25.209 12.04 19.564 15.279 17.171 17.252 L 17.15 17.231 C 15.169 19.691 12.055 25.246 12.939 31.136 C 15.343 47.165 21.134 53.039 28.624 61.608 C 34.513 68.346 44.572 76.821 51.667 81.131 C 67.286 90.62 96.705 96.923 96.705 96.923 L 96.989 96.705 Z M 43.366 135.682 C 47.835 130.217 54.319 127.023 61.176 125.761 C 71.547 123.853 85.043 128.293 94.739 131.933 C 98.592 133.38 102.124 135.037 105.419 136.897 C 105.917 139.926 106.378 142.885 106.759 145.572 C 103.112 142.543 99.092 139.935 94.648 138.11 C 85.637 134.41 73.945 131.307 66.039 131.968 C 58.423 132.605 53.22 135.87 50.169 141.1 C 46.544 147.314 45.985 156.377 50.077 162.681 C 54.233 169.083 63.88 171.207 71.513 171.217 C 76.281 171.223 78.945 167.906 78.867 167.901 C 78.867 167.901 76.282 163.007 76.336 159.612 C 76.382 156.698 76.378 153.671 79.053 150.587 C 81.373 147.912 84.429 146.873 87.099 147.724 C 91.045 148.982 93.571 154.131 93.508 157.847 C 93.414 163.412 89.921 169.939 85.757 173.632 C 79.81 178.907 72.263 181.665 63.622 180.694 C 54.463 179.664 47.581 175.704 42.727 168.94 C 38.631 163.232 37.305 156.497 37.893 149.271 C 38.247 144.92 40.603 139.061 43.366 135.682 Z M 106.997 145.771 C 111.513 149.561 115.814 153.717 119.627 158.253 C 121.286 174.308 122.402 190.384 122.356 206.707 C 122.347 209.754 122.335 212.818 122.309 215.894 C 118.58 216.811 115.223 217.456 110.875 217.952 C 110.878 214.389 110.862 210.677 110.841 206.773 C 110.743 188.552 109.528 168.465 107.33 149.918 C 107.172 148.585 106.979 147.124 106.759 145.572 C 106.838 145.638 106.918 145.705 106.997 145.771 Z M 117.468 274.822 C 113.865 292.181 110.616 303.837 100.77 322.697 C 94.567 334.58 78.643 350.359 64.945 357.499 C 57.288 361.49 49.152 364.181 39.322 363.397 C 33.531 362.935 23.732 359.619 18.6 354.581 C 11.303 347.419 6.914 337.291 6.579 326.823 C 5.817 303.019 31.367 281.052 54.434 290.121 C 69.693 296.12 75.026 313.156 68.945 325.405 C 65.296 332.754 52.393 339.838 43.828 338.304 C 34.908 336.707 28.527 332.377 28.207 324.743 C 27.996 319.715 32.107 315.69 35.928 314.743 C 39.878 313.764 44.825 315.706 47.921 319.08 C 51.576 323.06 51.21 329.992 51.21 329.992 C 51.21 329.992 61.112 327.662 59.422 311.443 C 58.181 299.533 50.766 296.239 43.417 296.314 C 31.3 296.438 21.926 307.205 19.34 319.155 C 17.269 328.727 18.216 340.958 28.853 350.175 C 40.311 360.103 55.348 353.807 64.725 347.389 C 75.32 340.138 84.866 327.29 90.131 318.442 C 99.035 303.477 103.482 286.441 106.867 269.36 C 109.953 253.791 110.722 240.112 110.853 223.387 C 113.122 223.222 115.398 223.01 117.684 222.753 C 119.205 222.582 120.722 222.385 122.234 222.161 C 121.953 239.872 120.997 257.822 117.468 274.822 Z M 16.448 171.874 C 19.713 179.163 23.745 186.238 28.872 192.361 C 33.949 198.424 39.972 203.851 46.682 208.036 C 53.438 212.25 60.985 215.287 68.742 217.084 C 78 219.229 83.977 219.594 97.198 218.954 C 102.964 218.675 107.262 218.365 110.875 217.952 C 110.874 219.802 110.867 221.612 110.853 223.387 C 98.718 224.272 86.812 223.826 75.02 221.877 C 64.718 220.175 57.773 218.115 48.483 213.286 C 41.225 209.513 31.546 203.358 25.649 197.323 C 19.724 191.259 14.249 183.98 10.141 176.426 C 6.344 169.445 3.432 161.342 1.466 153.85 C 0.326 149.507 0 141.324 0 141.324 C 0 141.324 4.905 140.206 7.756 142.96 C 9.351 144.5 9.069 148.046 9.806 150.623 C 11.834 157.713 12.327 162.675 16.448 171.874 Z"/>
</svg>