<?xml version="1.0" encoding="utf-8"?>
<svg viewBox="-730.544 -156.549 245.2195 231.7909" xmlns="http://www.w3.org/2000/svg" xmlns:bx="https://boxy-svg.com">
  <g transform="matrix(1, 0, 0, 1, -690.624755859375, -107.3941268920899)">
    <path d="M 8.658 22.51 L 33.06 36.599 L 33.06 64.775 L 8.658 78.864 L -15.744 64.776 L -15.744 36.598 Z" style="stroke: rgb(0, 0, 0); fill: none; stroke-width: 4px;" transform="matrix(0.866025, 0.5, -0.5, 0.866025, 187.924459, -60.777126)" bx:shape="n-gon 8.658 50.687 28.177 28.177 6 0 1@d63086fd"/>
    <path d="M 8.658 22.51 L 33.06 36.599 L 33.06 64.775 L 8.658 78.864 L -15.744 64.776 L -15.744 36.598 Z" style="stroke: rgb(0, 0, 0); fill: none; stroke-width: 4px;" transform="matrix(0.866025, 0.5, -0.5, 0.866025, 44.037732, -57.777125)" bx:shape="n-gon 8.658 50.687 28.177 28.177 6 0 1@d63086fd"/>
    <path d="M 39.542 91.318 L 79.084 114.148 L 79.084 159.807 L 39.542 182.636 L 0 159.807 L 0 114.148 Z" style="stroke: rgb(0, 0, 0); fill: none; stroke-width: 4px;" transform="matrix(0.866025, 0.5, -0.5, 0.866025, 134.061257, -115.648933)" bx:shape="n-gon 39.542 136.977 45.659 45.659 6 0 1@52dc0b09"/>
    <path d="M 8.658 40.307 L 17.647 45.497 L 17.647 55.877 L 8.658 61.067 L -0.331 55.877 L -0.331 45.497 Z" style="stroke: rgb(0, 0, 0); fill: none; stroke-width: 4px;" transform="matrix(0.866025, 0.5, -0.5, 0.866025, -0.15821, 77.688657)" bx:shape="n-gon 8.658 50.687 10.38 10.38 6 0 1@4679ea2c"/>
    <path d="M 8.658 39.068 L 18.72 44.878 L 18.72 56.497 L 8.658 62.306 L -1.404 56.497 L -1.404 44.878 Z" style="stroke: rgb(0, 0, 0); fill: none; stroke-width: 4px;" transform="matrix(0.866025, 0.5, -0.5, 0.866025, 96.782409, 34.645311)" bx:shape="n-gon 8.658 50.687 11.619 11.619 6 0 1@f396daf1"/>
    <path d="M 8.658 22.51 L 33.06 36.599 L 33.06 64.775 L 8.658 78.864 L -15.744 64.776 L -15.744 36.598 Z" style="stroke: rgb(0, 0, 0); fill: none; stroke-width: 4px;" transform="matrix(0.866025, 0.5, -0.5, 0.866025, 39.037729, 97.807805)" bx:shape="n-gon 8.658 50.687 28.177 28.177 6 0 1@d63086fd"/>
    <path d="M 8.658 39.068 L 18.72 44.878 L 18.72 56.497 L 8.658 62.306 L -1.404 56.497 L -1.404 44.878 Z" style="stroke: rgb(0, 0, 0); fill: none; stroke-width: 4px;" transform="matrix(0.866025, 0.5, -0.5, 0.866025, 180.259849, -16.485997)" bx:shape="n-gon 8.658 50.687 11.619 11.619 6 0 1@f396daf1"/>
    <path d="M 39.542 91.318 L 79.084 114.148 L 79.084 159.807 L 39.542 182.636 L 0 159.807 L 0 114.148 Z" style="stroke: rgb(0, 0, 0); fill: none; stroke-width: 4px;" transform="matrix(0.866025, 0.5, -0.5, 0.866025, 51.398735, -68.437782)" bx:shape="n-gon 39.542 136.977 45.659 45.659 6 0 1@52dc0b09"/>
  </g>
</svg>