<?xml version="1.0" encoding="utf-8"?>
<svg viewBox="750.0004 0.0005 500.8987 866.3885" xmlns="http://www.w3.org/2000/svg">
  <path d="M 730.79 72.166 L 1019.491 72.331" style="fill: rgb(216, 216, 216); stroke-width: 16px; stroke: rgb(34, 34, 34); transform-origin: 875.14px 72.249px;" transform="matrix(0.866025090218, 0.5, -0.5, 0.866025090218, 0.000041283631, -0.000022506927)"/>
  <path d="M 855.925 288.761 L 1144.626 288.926" style="fill: rgb(216, 216, 216); stroke-width: 12px; stroke: rgb(34, 34, 34); transform-origin: 1000.28px 288.844px;" transform="matrix(0, 1, -1, 0, -0.004943847658, 0.005004882805)"/>
  <path d="M 980.895 72.164 L 1269.595 72.329" style="fill: rgb(216, 216, 216); stroke-width: 16px; stroke: rgb(34, 34, 34); transform-origin: 1125.25px 72.247px;" transform="matrix(-0.866025090218, 0.5, -0.500000000001, -0.866025090217, -0.00738721362, 0.002048559903)"/>
  <path d="M 750.27 0.002 L 804.004 0.002 C 814.406 32.735 796.495 49.121 750.27 49.161 L 750.27 0.002 Z" style="stroke-width: 12px; fill: rgb(34, 34, 34);"/>
  <path d="M 1250.145 49.161 C 1203.796 49.161 1185.828 32.775 1196.243 0.002 L 1250.899 0.002 L 1250.899 49.16 C 1250.649 49.161 1250.397 49.161 1250.145 49.161 Z" style="stroke-width: 12px; fill: rgb(34, 34, 34);"/>
  <path d="M 750.27 0.002 L 785.223 0.002 C 791.97 21.289 780.319 31.953 750.27 31.995 L 750.27 0.002 Z" style="stroke-width: 12px; fill: rgb(51, 51, 51);"/>
  <path d="M 730.703 505.358 L 1019.404 505.523" style="fill: rgb(216, 216, 216); stroke-width: 16px; stroke: rgb(34, 34, 34); transform-origin: 875.053px 505.441px;" transform="matrix(-0.866025090219, 0.5, -0.500000000001, -0.866025090218, 0.000150324023, 0.000031756218)"/>
  <path d="M 605.837 721.955 L 894.538 722.12" style="fill: rgb(216, 216, 216); stroke-width: 16px; stroke: rgb(34, 34, 34); transform-origin: 750.187px 722.038px;" transform="matrix(0, 1, -1, 0, 0.000061035239, -0.000005722151)"/>
  <path d="M 981.06 504.333 L 1269.761 504.498" style="fill: rgb(216, 216, 216); stroke-width: 16px; stroke: rgb(34, 34, 34); transform-origin: 1125.41px 504.417px;" transform="matrix(0.866025090219, 0.500000000001, -0.5, 0.866025090221, -0.000492102939, 0.002012680382)"/>
  <path d="M 856.091 288.762 L 1144.792 288.927" style="fill: rgb(216, 216, 216); stroke-width: 16px; stroke: rgb(34, 34, 34); transform-origin: 1000.44px 288.845px;" transform="matrix(0, 1, -1, 0, 0.00094604489, -0.000885009821)"/>
  <path d="M 957.532 408.426 C 985.916 359.263 1014.3 359.263 1042.685 408.426 C 1071.07 457.589 1056.877 482.171 1000.108 482.171 C 943.339 482.171 929.147 457.589 957.532 408.426 Z" style="stroke-width: 12px; fill: rgb(34, 34, 34);"/>
  <path d="M 792.678 841.436 C 797.974 850.61 801.788 858.927 804.12 866.389 L 750.27 866.389 L 750.27 804.564 C 764.406 804.661 778.542 816.952 792.678 841.436 Z" style="stroke-width: 12px; fill: rgb(34, 34, 34);"/>
  <path d="M 1250.629 577.688 L 1250.464 866.389" style="fill: rgb(216, 216, 216); stroke-width: 16px; stroke: rgb(34, 34, 34); transform-origin: 1250.55px 722.038px;"/>
  <path d="M 1207.569 841.436 C 1222.013 816.42 1236.456 804.133 1250.899 804.575 L 1250.899 866.389 L 1196.127 866.389 C 1198.458 858.927 1202.273 850.61 1207.569 841.436 Z" style="stroke-width: 12px; fill: rgb(34, 34, 34);"/>
  <path d="M 1222.396 849.968 C 1231.897 833.512 1241.398 825.51 1250.899 825.963 L 1250.899 866.389 L 1214.891 866.389 C 1216.405 861.486 1218.907 856.012 1222.396 849.968 Z" style="stroke-width: 12px; fill: rgb(51, 51, 51);"/>
  <path d="M 1250.37 564.416 C 1250.548 564.416 1250.724 564.417 1250.899 564.419 L 1250.899 593.237 C 1247.022 593.558 1243.145 590.36 1239.268 583.645 C 1231.867 570.826 1235.567 564.416 1250.37 564.416 Z" style="stroke-width: 12px; fill: rgb(34, 34, 34);"/>
  <path d="M 761.161 583.645 C 757.531 589.933 753.9 593.137 750.27 593.256 L 750.27 564.416 C 764.897 564.477 768.527 570.887 761.161 583.645 Z" style="stroke-width: 12px; fill: rgb(34, 34, 34);"/>
  <path d="M 777.832 849.968 C 781.321 856.012 783.823 861.486 785.337 866.389 L 750.27 866.389 L 750.27 825.945 C 759.457 826.048 768.645 834.055 777.832 849.968 Z" style="stroke-width: 12px; fill: rgb(51, 51, 51);"/>
  <path d="M 988.985 150.842 C 996.386 163.661 1003.787 163.661 1011.188 150.842 C 1018.589 138.023 1014.889 131.613 1000.086 131.613 C 985.284 131.613 981.584 138.023 988.985 150.842 Z" style="stroke-width: 12px; fill: rgb(34, 34, 34);"/>
  <path d="M 972.359 416.958 C 990.852 384.927 1009.346 384.927 1027.839 416.958 C 1046.332 448.989 1037.086 465.005 1000.099 465.005 C 963.112 465.005 953.866 448.989 972.359 416.958 Z" style="stroke-width: 12px; fill: rgb(51, 51, 51); stroke: rgb(34, 34, 34);"/>
  <path d="M 1250.136 31.995 C 1219.955 31.995 1208.244 21.331 1215.005 0.002 L 1250.899 0.002 L 1250.899 31.993 C 1250.646 31.994 1250.392 31.995 1250.136 31.995 Z" style="stroke-width: 12px; fill: rgb(51, 51, 51);"/>
</svg>