<?xml version="1.0" encoding="utf-8"?>
<svg viewBox="0.0002 0.0002 315.4798 315.4788" xmlns="http://www.w3.org/2000/svg">
  <path id="path5355-9-4" d="M 36.654 315.479 C 30.797 315.479 23.591 294.455 16.185 277.51 C 7.236 257.034 -1.378 238.894 0.185 224.042 C 3.043 196.899 18.817 182.636 36.654 182.636 C 54.491 182.636 70.235 196.899 73.092 224.042 C 74.655 238.894 66.041 257.034 57.092 277.511 C 49.686 294.455 42.512 315.479 36.654 315.479 Z" style="fill-opacity: 1; fill: none; stroke: rgb(0, 0, 0); stroke-width: 7px;"/>
  <path id="path5355-9-4-3" d="M 315.48 36.623 C 315.48 42.481 294.455 49.686 277.51 57.092 C 257.034 66.04 238.894 74.655 224.042 73.091 C 196.899 70.234 182.636 54.46 182.636 36.623 C 182.635 18.786 196.899 3.042 224.042 0.185 C 238.894 -1.378 257.034 7.236 277.511 16.185 C 294.456 23.591 315.48 30.765 315.48 36.623 Z" style="fill-opacity: 1; fill: none; stroke: rgb(0, 0, 0); stroke-width: 7px;"/>
  <path id="path5353" d="M 254.842 254.838 C 240.619 269.061 167.16 192.607 134.059 174.493 C 95.996 153.664 44.658 147.871 24.966 122.985 C 5.763 98.717 20.059 100.165 15.354 65.908 C 10.581 31.161 -9.356 21.926 5.278 5.273 C 21.93 -9.359 31.143 10.6 65.889 15.372 C 100.147 20.077 98.699 5.782 122.967 24.984 C 147.853 44.676 153.668 95.991 174.497 134.055 C 192.611 167.157 269.065 240.615 254.842 254.838 Z M 131.783 102.876 C 123.632 82.068 116.896 63.151 105.289 53.754 C 84.076 36.581 62.858 37.628 50.245 50.241 C 37.633 62.853 36.564 84.093 53.736 105.307 C 63.133 116.914 82.051 123.65 102.858 131.801 C 120.077 138.547 140.038 148.318 144.179 144.176 C 148.321 140.033 138.528 120.094 131.783 102.876 Z" style="fill-opacity: 1; fill: none; stroke: rgb(0, 0, 0); stroke-width: 7px;"/>
  <path id="path-4" d="M 37.211 266.591 C 34.657 266.591 31.514 257.421 28.284 250.03 C 24.38 241.099 20.623 233.187 21.305 226.709 C 22.551 214.87 29.432 208.649 37.211 208.649 C 44.992 208.649 51.858 214.87 53.105 226.709 C 53.786 233.187 50.029 241.099 46.126 250.031 C 42.895 257.421 39.767 266.591 37.211 266.591 Z" style="fill-opacity: 1; fill: none; stroke: rgb(0, 0, 0); stroke-width: 7px;"/>
  <path id="path-5" d="M 235.63 65.099 C 233.076 65.099 229.933 55.929 226.703 48.538 C 222.799 39.607 219.042 31.695 219.724 25.217 C 220.97 13.378 227.851 7.157 235.63 7.157 C 243.411 7.157 250.277 13.378 251.524 25.217 C 252.205 31.695 248.448 39.607 244.545 48.539 C 241.314 55.929 238.186 65.099 235.63 65.099 Z" style="fill-opacity: 1; fill: none; stroke: rgb(0, 0, 0); stroke-width: 7px;" transform="matrix(0, -1, 1, 0, 199.496006, 271.751965)"/>
</svg>