<?xml version="1.0" encoding="utf-8"?>
<svg viewBox="-0.1047 0 500.8987 866.388" xmlns="http://www.w3.org/2000/svg">
  <path d="M -19.315 72.165 L 269.386 72.33" style="fill: rgb(216, 216, 216); stroke-width: 16px; stroke: rgb(255, 255, 255); transform-origin: 125.035px 72.2475px;" transform="matrix(0.866025090218, 0.5, -0.5, 0.866025090218, 0.000018774558, -0.000011604873)"/>
  <path d="M 105.82 288.76 L 394.521 288.925" style="fill: rgb(216, 216, 216); stroke-width: 12px; stroke: rgb(255, 255, 255); transform-origin: 250.17px 288.843px;" transform="matrix(0, 1, -1, 0, 0.000045776361, 0.000041961697)"/>
  <path d="M 230.79 72.163 L 519.491 72.328" style="fill: rgb(216, 216, 216); stroke-width: 16px; stroke: rgb(255, 255, 255); transform-origin: 375.14px 72.246px;" transform="matrix(-0.866025090218, 0.5, -0.5, -0.866025090218, 0.000125132529, 0.000005539638)"/>
  <path d="M 0.165 0.001 L 53.899 0.001 C 64.301 32.734 46.39 49.12 0.165 49.16 Z" style="stroke-width: 12px; fill: rgb(255, 255, 255);"/>
  <path d="M 500.04 49.16 C 453.691 49.16 435.723 32.774 446.138 0.001 L 500.794 0.001 L 500.794 49.159 C 500.544 49.16 500.292 49.16 500.04 49.16 Z" style="stroke-width: 12px; fill: rgb(255, 255, 255);"/>
  <path d="M 0.165 0.001 L 35.118 0.001 C 41.865 21.288 30.214 31.952 0.165 31.994 Z" style="stroke-width: 12px; fill: rgb(240, 235, 235);"/>
  <path d="M -19.402 505.357 L 269.299 505.522" style="fill: rgb(216, 216, 216); stroke-width: 16px; stroke: rgb(255, 255, 255); transform-origin: 124.948px 505.44px;" transform="matrix(-0.866025090217, 0.5, -0.5, -0.866025090217, -0.000063973339, 0.000023265521)"/>
  <path d="M -144.268 721.954 L 144.433 722.119" style="fill: rgb(216, 216, 216); stroke-width: 16px; stroke: rgb(255, 255, 255); transform-origin: 0.0819802px 722.037px;" transform="matrix(-1e-12, 1, -1.000000000001, 0, -0.000010035865, -0.000050999254)"/>
  <path d="M 230.955 504.332 L 519.656 504.497" style="fill: rgb(216, 216, 216); stroke-width: 16px; stroke: rgb(255, 255, 255); transform-origin: 375.305px 504.416px;" transform="matrix(0.866025090218, 0.499999999999, -0.5, 0.866025090218, 0.000060953545, 0.00000783499)"/>
  <path d="M 105.986 288.761 L 394.687 288.926" style="fill: rgb(216, 216, 216); stroke-width: 16px; stroke: rgb(255, 255, 255); transform-origin: 250.336px 288.844px;" transform="matrix(0, 1, -1, 0, 0, -0.000022888207)"/>
  <path d="M 207.427 408.425 Q 250.003 334.68 292.58 408.425 L 292.58 408.425 Q 335.157 482.17 250.003 482.17 L 250.003 482.17 Q 164.85 482.17 207.427 408.425 Z" style="stroke-width: 12px; fill: rgb(255, 255, 255);"/>
  <path d="M 42.573 841.435 C 47.869 850.609 51.683 858.926 54.015 866.388 L 0.165 866.388 L 0.165 804.563 C 14.301 804.66 28.437 816.951 42.573 841.435 Z" style="stroke-width: 12px; fill: rgb(255, 255, 255);"/>
  <path d="M 500.524 577.687 L 500.359 866.388" style="fill: rgb(216, 216, 216); stroke-width: 16px; stroke: rgb(255, 255, 255); transform-origin: 500.441px 722.037px;"/>
  <path d="M 457.464 841.435 C 471.908 816.419 486.351 804.132 500.794 804.574 L 500.794 866.388 L 446.022 866.388 C 448.353 858.926 452.168 850.609 457.464 841.435 Z" style="stroke-width: 12px; fill: rgb(255, 255, 255);"/>
  <path d="M 472.291 849.967 C 481.792 833.511 491.293 825.509 500.794 825.962 L 500.794 866.388 L 464.786 866.388 C 466.3 861.485 468.802 856.011 472.291 849.967 Z" style="stroke-width: 12px; fill: rgb(240, 235, 235);"/>
  <path d="M 500.265 564.415 C 500.443 564.415 500.619 564.416 500.794 564.418 L 500.794 593.236 C 496.917 593.557 493.04 590.359 489.163 583.644 C 481.762 570.825 485.462 564.415 500.265 564.415 Z" style="stroke-width: 12px; fill: rgb(255, 255, 255);"/>
  <path d="M 11.056 583.644 C 7.426 589.932 3.795 593.136 0.165 593.255 L 0.165 564.415 C 14.792 564.476 18.422 570.886 11.056 583.644 Z" style="stroke-width: 12px; fill: rgb(255, 255, 255);"/>
  <path d="M 27.727 849.967 C 31.216 856.011 33.718 861.485 35.232 866.388 L 0.165 866.388 L 0.165 825.944 C 9.352 826.047 18.54 834.054 27.727 849.967 Z" style="stroke-width: 12px; fill: rgb(240, 235, 235);"/>
  <path d="M 238.88 150.841 C 246.281 163.66 253.682 163.66 261.083 150.841 C 268.484 138.022 264.784 131.612 249.981 131.612 C 235.179 131.612 231.479 138.022 238.88 150.841 Z" style="stroke-width: 12px; fill: rgb(255, 255, 255);"/>
  <path d="M 222.254 416.957 Q 249.994 368.91 277.734 416.957 L 277.734 416.957 Q 305.474 465.004 249.994 465.004 L 249.994 465.004 Q 194.514 465.004 222.254 416.957 Z" style="stroke-width: 12px; stroke: rgb(255, 255, 255); fill: rgb(240, 235, 235);"/>
  <path d="M 500.031 31.994 C 469.85 31.994 458.139 21.33 464.9 0.001 L 500.794 0.001 L 500.794 31.992 C 500.541 31.993 500.287 31.994 500.031 31.994 Z" style="stroke-width: 12px; fill: rgb(240, 235, 235);"/>
</svg>